<svg id="call-24px" xmlns="http://www.w3.org/2000/svg" width="24" height="24" viewBox="0 0 24 24">
  <path id="Path_669" data-name="Path 669" d="M0,0H24V24H0Z" fill="none"/>
  <path id="Path_670" data-name="Path 670" d="M20.955,16.068a12.079,12.079,0,0,1-3.726-.591,1.032,1.032,0,0,0-1.066.253l-1.657,2.079A16.027,16.027,0,0,1,7.233,10.6L9.291,8.848a1.077,1.077,0,0,0,.253-1.077,11.772,11.772,0,0,1-.591-3.726A1.054,1.054,0,0,0,7.908,3H4.256C3.686,3,3,3.253,3,4.045A18.1,18.1,0,0,0,20.955,22,1.108,1.108,0,0,0,22,20.754V17.113A1.054,1.054,0,0,0,20.955,16.068Z" transform="translate(-0.5 -0.5)" fill="#eee"/>
</svg>
