<svg xmlns="http://www.w3.org/2000/svg" width="32" height="32" viewBox="0 0 32 32">
  <g id="Group_1084" data-name="Group 1084" transform="translate(-1389 -378)">
    <g id="Rectangle_1782" data-name="Rectangle 1782" transform="translate(1389 378)" fill="#fff" stroke="#333" stroke-width="0.3">
      <rect width="32" height="32" rx="4" stroke="none"/>
      <rect x="0.15" y="0.15" width="31.7" height="31.7" rx="3.85" fill="none"/>
    </g>
    <g id="external-link-line" transform="translate(1397 386)">
      <path id="Path_906" data-name="Path 906" d="M0,0H16V16H0Z" fill="none"/>
      <path id="Path_907" data-name="Path 907" d="M7.657,5V6.327H4.331v7.319h7.319V10.319H12.98v3.992a.665.665,0,0,1-.665.665H3.665A.665.665,0,0,1,3,14.311V5.661A.665.665,0,0,1,3.665,5Zm7.319-2V8.323H13.645V5.271L8.46,10.456,7.52,9.516,12.7,4.331H9.653V3Z" transform="translate(-0.988 -0.988)" fill="#333"/>
    </g>
  </g>
</svg>
