<svg id="phone_iphone-24px_1_" data-name="phone_iphone-24px (1)" xmlns="http://www.w3.org/2000/svg" width="24" height="24" viewBox="0 0 24 24">
  <path id="Path_713" data-name="Path 713" d="M16.981,1H7.853A2.71,2.71,0,0,0,5,3.538V20.8a2.71,2.71,0,0,0,2.853,2.538h9.128A2.71,2.71,0,0,0,19.833,20.8V3.538A2.71,2.71,0,0,0,16.981,1ZM12.417,22.318a1.533,1.533,0,1,1,0-3.045,1.533,1.533,0,1,1,0,3.045Zm5.135-4.061H7.282V4.045H17.551Z" transform="translate(-0.833 -0.167)" fill="#eee"/>
  <path id="Path_714" data-name="Path 714" d="M0,0H24V24H0Z" fill="none"/>
</svg>
