<svg xmlns="http://www.w3.org/2000/svg" xmlns:xlink="http://www.w3.org/1999/xlink" width="18" height="18" viewBox="0 0 18 18">
  <defs>
    <clipPath id="clip-path">
      <rect id="Rectangle_1552" data-name="Rectangle 1552" width="18" height="18" transform="translate(14925.948 -3803.86)" fill="#eee"/>
    </clipPath>
  </defs>
  <g id="Mask_Group_26" data-name="Mask Group 26" transform="translate(-14925.948 3803.86)" clip-path="url(#clip-path)">
    <g id="youtube" transform="translate(14925.986 -3801.156)">
      <g id="Group_806" data-name="Group 806">
        <path id="Path_759" data-name="Path 759" d="M17.164,4.963c-.486-.884-1.014-1.046-2.088-1.108S11.3,3.75,8.965,3.75s-5.043.031-6.115.1-1.6.224-2.092,1.109S0,7.366,0,10.042v.009c0,2.665.258,4.2.758,5.07s1.018,1.044,2.091,1.118,3.773.1,6.116.1,5.037-.038,6.112-.1,1.6-.235,2.088-1.118c.505-.873.761-2.405.761-5.07v-.009C17.926,7.366,17.671,5.846,17.164,4.963ZM6.722,13.48V6.612l5.6,3.434Z" transform="translate(0 -3.75)" fill="#eee"/>
      </g>
    </g>
  </g>
</svg>
